<svg width="597" height="432" viewBox="0 0 597 432" fill="none" xmlns="http://www.w3.org/2000/svg">
<g filter="url(#filter0_d_1143_43)">
<path d="M5 276.203C5 309.175 37.4636 336.357 79.3162 340.131C84.8167 340.627 89.3088 345.055 89.3088 350.578V396.638C89.3088 404.115 97.2155 408.948 103.87 405.537L228.464 341.679C229.876 340.955 231.439 340.578 233.025 340.578H507.691C554.254 340.578 592 311.756 592 276.203V65.375C592 29.8217 554.254 1 507.691 1L89.3088 1C42.7463 1 5 29.8217 5 65.375L5 276.203Z" fill="white" shape-rendering="crispEdges"/>
<path d="M5 276.203C5 309.175 37.4636 336.357 79.3162 340.131C84.8167 340.627 89.3088 345.055 89.3088 350.578V396.638C89.3088 404.115 97.2155 408.948 103.87 405.537L228.464 341.679C229.876 340.955 231.439 340.578 233.025 340.578H507.691C554.254 340.578 592 311.756 592 276.203V65.375C592 29.8217 554.254 1 507.691 1L89.3088 1C42.7463 1 5 29.8217 5 65.375L5 276.203Z" stroke="#663399" stroke-opacity="0.25" shape-rendering="crispEdges"/>
</g>
<defs>
<filter id="filter0_d_1143_43" x="0.5" y="0.5" width="596" height="430.652" filterUnits="userSpaceOnUse" color-interpolation-filters="sRGB">
<feFlood flood-opacity="0" result="BackgroundImageFix"/>
<feColorMatrix in="SourceAlpha" type="matrix" values="0 0 0 0 0 0 0 0 0 0 0 0 0 0 0 0 0 0 127 0" result="hardAlpha"/>
<feOffset dy="20"/>
<feGaussianBlur stdDeviation="2"/>
<feComposite in2="hardAlpha" operator="out"/>
<feColorMatrix type="matrix" values="0 0 0 0 0.498039 0 0 0 0 0.407843 0 0 0 0 0.682353 0 0 0 0.2 0"/>
<feBlend mode="normal" in2="BackgroundImageFix" result="effect1_dropShadow_1143_43"/>
<feBlend mode="normal" in="SourceGraphic" in2="effect1_dropShadow_1143_43" result="shape"/>
</filter>
</defs>
</svg>
